<?xml version="1.0" encoding="utf-8"?>
<!-- Generator: Adobe Illustrator 23.0.3, SVG Export Plug-In . SVG Version: 6.00 Build 0)  -->
<svg version="1.1" id="Layer_1" xmlns="http://www.w3.org/2000/svg" xmlns:xlink="http://www.w3.org/1999/xlink" x="0px" y="0px"
	 viewBox="0 0 100 125" style="enable-background:new 0 0 100 125;" xml:space="preserve">
<style type="text/css">
	.st0{fill:#FFFFFF;stroke:#000000;stroke-miterlimit:10;}
</style>
<path class="st0" d="M56.5,57.5H43.5c-0.8,0-1.5,0.7-1.5,1.5c0,4.4,3.6,8,8,8s8-3.6,8-8C58,58.2,57.4,57.5,56.5,57.5z M50,64.1
	c-2.3,0-4.2-1.5-4.8-3.5h9.6C54.2,62.6,52.3,64.1,50,64.1z M29.4,53.9H14.9c-0.8,0-1.5,0.7-1.5,1.5c0,4.8,3.9,8.8,8.8,8.8
	c4.8,0,8.8-3.9,8.8-8.8C30.9,54.6,30.3,53.9,29.4,53.9z M22.2,61.2c-2.7,0-4.9-1.8-5.6-4.3h11.1C27.1,59.4,24.8,61.2,22.2,61.2z
	 M88.3,65.3c3.1-2.8,5.1-6.9,5.1-11.5c0-8.6-7-15.6-15.6-15.6c-7.6,0-13.9,5.5-15.3,12.7c-2.4-4.5-7.1-7.6-12.5-7.6
	s-10.2,3.1-12.5,7.6c-1.4-7.2-7.7-12.7-15.3-12.7c-8.6,0-15.6,7-15.6,15.6c0,4.6,2,8.6,5.1,11.5c-5,3.4-8.2,9-8.2,15.5V90
	c0,0.8,0.7,1.5,1.5,1.5c0.8,0,1.5-0.7,1.5-1.5c0,0,0,0,0,0v-9.3c0-5.8,3.2-10.8,7.8-13.6c2.3,1.4,5,2.1,7.8,2.1
	c2.9,0,5.5-0.8,7.8-2.1c4.7,2.7,7.8,7.8,7.8,13.6V90c0,0,0,0,0,0c0,0.8,0.7,1.5,1.5,1.5c0.8,0,1.5-0.7,1.5-1.5v-9.3
	c0-2.8-0.6-5.4-1.7-7.8c1-1.3,2.3-2.4,3.8-3.2c2.1,1.2,4.5,1.9,7.1,1.9s5-0.7,7.1-1.9c1.4,0.8,2.7,1.9,3.8,3.2
	c-1.1,2.4-1.7,5-1.7,7.8V90c0,0.8,0.7,1.5,1.5,1.5c0.8,0,1.5-0.7,1.5-1.5c0,0,0,0,0,0v-9.3c0-5.8,3.2-10.8,7.8-13.6
	c2.3,1.4,5,2.1,7.8,2.1c2.9,0,5.5-0.8,7.8-2.1c4.7,2.7,7.8,7.8,7.8,13.6V90c0,0,0,0,0,0c0,0.8,0.7,1.5,1.5,1.5
	c0.8,0,1.5-0.7,1.5-1.5v-9.3C96.5,74.4,93.2,68.7,88.3,65.3z M22.2,66.4c-6.9,0-12.6-5.6-12.6-12.6s5.6-12.6,12.6-12.6
	s12.6,5.6,12.6,12.6S29.1,66.4,22.2,66.4z M37.6,70.3c-1.3-2-3-3.6-5-5c1.5-1.3,2.7-2.9,3.5-4.7c0.6,2.9,2.1,5.4,4.2,7.3
	C39.4,68.6,38.4,69.4,37.6,70.3z M50,68.7c-6.2,0-11.2-5-11.2-11.2s5-11.2,11.2-11.2s11.2,5,11.2,11.2S56.2,68.7,50,68.7z
	 M62.4,70.3c-0.8-0.9-1.7-1.7-2.7-2.4c2.1-1.9,3.6-4.4,4.2-7.3c0.9,1.8,2.1,3.4,3.5,4.7C65.4,66.6,63.7,68.3,62.4,70.3z M77.8,66.4
	c-6.9,0-12.6-5.6-12.6-12.6s5.6-12.6,12.6-12.6s12.6,5.6,12.6,12.6S84.7,66.4,77.8,66.4z M85.1,53.9H70.6c-0.8,0-1.5,0.7-1.5,1.5
	c0,4.8,3.9,8.8,8.8,8.8c4.8,0,8.8-3.9,8.8-8.8C86.6,54.6,85.9,53.9,85.1,53.9z M77.8,61.2c-2.7,0-4.9-1.8-5.6-4.3h11.1
	C82.7,59.4,80.5,61.2,77.8,61.2z M22.5,31.1c2.1-0.4,3.5-1.9,3.2-3.4v-8.9l10.5-2v6.4c-0.4,0-0.8,0-1.2,0.1
	c-2.1,0.4-3.5,1.9-3.2,3.4c0.3,1.5,2.2,2.4,4.2,2c2.1-0.4,3.5-1.9,3.2-3.4l0-14.9c0-0.6-0.2-1.1-0.7-1.5c-0.4-0.4-1-0.5-1.6-0.4
	l-12.7,2.3c-0.9,0.2-1.6,1-1.6,1.9v13c-0.4,0-0.8,0-1.2,0.1c-2.1,0.4-3.5,1.9-3.2,3.4C18.5,30.6,20.4,31.5,22.5,31.1z M25.7,13.6
	l10.5-1.9v2l-10.5,2V13.6z M65.1,35.2c2.1-0.4,3.5-1.9,3.2-3.4l0-8.9l10.5-2v6.4c-0.4,0-0.8,0-1.2,0.1c-2.1,0.4-3.5,1.9-3.2,3.4
	c0.3,1.5,2.2,2.4,4.2,2c2.1-0.4,3.5-1.9,3.2-3.4V14.5c0-0.6-0.2-1.1-0.7-1.5c-0.4-0.4-1-0.5-1.6-0.4l-12.7,2.3
	c-0.9,0.2-1.6,1-1.6,1.9v13c-0.4,0-0.8,0-1.2,0.1c-2.1,0.4-3.5,1.9-3.2,3.4C61.1,34.7,63,35.6,65.1,35.2z M68.3,17.7l10.5-1.9v2
	l-10.5,2V17.7z"/>
</svg>
